<svg width="23" height="22" fill="none" xmlns="http://www.w3.org/2000/svg"><g clip-path="url(#clip0)" fill="#BDBDBD" stroke="#fff"><path d="M9.26 20.35c0 .644-.509 1.15-1.116 1.15-.608 0-1.118-.506-1.118-1.15 0-.645.51-1.15 1.118-1.15.607 0 1.117.505 1.117 1.15zm9.826 0c0 .644-.51 1.15-1.117 1.15-.608 0-1.117-.506-1.117-1.15 0-.645.51-1.15 1.117-1.15s1.117.505 1.117 1.15zm2.862-17.568h0l.008.01a.24.24 0 01.052.2l-2.277 10.26v.001a.235.235 0 01-.083.134.21.21 0 01-.136.046h0H8.22l-.14.118-1.732 1.467-.07.06-.044.079a.999.999 0 00.342 1.33c.144.089.31.14.48.146h12.128c.055 0 .11.022.152.065a.241.241 0 01.067.168.241.241 0 01-.067.169.212.212 0 01-.151.065H7.163a1.442 1.442 0 01-.667-.126 1.481 1.481 0 01-.54-.417 1.477 1.477 0 01.035-1.84l.063-.064 1.16-.967.255-.213-.098-.319-3.3-10.633-.077-.25-.25-.08-2.58-.806s0 0 0 0a.225.225 0 01-.132-.112.25.25 0 01-.017-.187.233.233 0 01.11-.139.211.211 0 01.163-.016l2.947.924h.001c.033.01.063.03.089.055a.236.236 0 01.057.095s0 0 0 0l3.284 10.61.11.351h11.551l.085-.393 1.92-8.8.132-.607H7.654L7.505 2.7h14.278c.03 0 .06.007.089.021a.222.222 0 01.076.061z"/></g><defs><clipPath id="clip0"><path fill="#fff" d="M0 0h23v22H0z"/></clipPath></defs></svg>