<svg width="32" height="32" fill="none" xmlns="http://www.w3.org/2000/svg"><path d="M22.45 5.5a5.97 5.97 0 014.266 1.79 6.2 6.2 0 010 8.7v.001l-10.36 10.49-.356.36-.356-.36-10.36-10.49h0a6.2 6.2 0 010-8.702 5.98 5.98 0 018.533 0v.002L16 9.525l2.17-2.212.002-.002A5.94 5.94 0 0122.45 5.5zm0 0s0 0 0 0V6v-.5s0 0 0 0zm0-1h0a6.97 6.97 0 00-4.983 2.09l-.002.002h0l-1.11 1.12L16 8.07l-.355-.358-1.11-1.12-.002-.001a6.99 6.99 0 00-9.967 0L22.45 4.5zm0 0a6.99 6.99 0 014.983 2.09 7.22 7.22 0 010 10.119s0 0 0 0L16 28.29M22.45 4.5L16 28.288m0 0L4.566 16.71s0 0 0 0a7.22 7.22 0 010-10.12L16 28.289z" stroke="#fff"/></svg>