<svg width="33" height="33" fill="none" xmlns="http://www.w3.org/2000/svg"><path d="M31.22.417H1.76A1.28 1.28 0 00.48 1.698v29.46c0 .708.572 1.28 1.28 1.28h29.46a1.28 1.28 0 001.28-1.28V1.697a1.28 1.28 0 00-1.28-1.28zM9.977 27.703h-4.75V12.421h4.75v15.282zM7.604 10.332a2.754 2.754 0 110-5.508 2.754 2.754 0 010 5.508zm20.161 17.371h-4.747V20.27c0-1.773-.032-4.05-2.47-4.05-2.47 0-2.85 1.929-2.85 3.922v7.561h-4.742V12.421h4.555v2.09h.064c.632-1.201 2.181-2.47 4.495-2.47 4.81 0 5.695 3.166 5.695 7.28v8.382z" fill="#fff"/></svg>