<svg width="19" height="17" fill="none" xmlns="http://www.w3.org/2000/svg"><path d="M9.501 3.953L8.137 2.557v-.001a3.737 3.737 0 00-5.334 0 3.875 3.875 0 000 5.438h0l6.475 6.557.223.225.222-.225 6.475-6.556h0a3.875 3.875 0 000-5.439 3.732 3.732 0 00-2.666-1.119s0 0 0 0v.313m-4.03 2.203l1.356-1.384h0l.224.219m-1.58 1.165l1.355-1.383M9.501 3.953l1.356-1.383m2.675-.82a3.4 3.4 0 00-2.45 1.038m2.45-1.038a3.419 3.419 0 012.444 1.025L13.532 1.75zm-2.45 1.038l-.225-.218m.225.218l-.225-.218M13.532.813h0a4.357 4.357 0 00-3.114 1.306l-.002.001-.693.7-.222.224-.222-.224-.694-.7h0a4.369 4.369 0 00-6.23 0L13.532.812zm0 0a4.369 4.369 0 013.115 1.306 4.512 4.512 0 010 6.324s0 0 0 0L9.5 15.68M13.53.813L9.502 15.68m0 0L2.355 8.444s0 0 0 0a4.512 4.512 0 010-6.325L9.5 15.68z" fill="#BDBDBD" stroke="#fff" stroke-width=".625"/></svg>