<svg width="33" height="33" viewBox="0 0 33 33" fill="none" xmlns="http://www.w3.org/2000/svg">
<path d="M31.2194 0.41748H1.76032C1.05186 0.41748 0.479492 0.989852 0.479492 1.69831V31.1574C0.479492 31.8659 1.05186 32.4383 1.76032 32.4383H31.2194C31.9279 32.4383 32.5003 31.8659 32.5003 31.1574V1.69831C32.5003 0.989852 31.9279 0.41748 31.2194 0.41748ZM9.97765 27.7032H5.22657V12.4213H9.97765V27.7032ZM7.60412 10.3319C7.05947 10.3319 6.52705 10.1704 6.07419 9.86782C5.62134 9.56523 5.26838 9.13514 5.05995 8.63196C4.85152 8.12877 4.79699 7.57507 4.90324 7.04089C5.0095 6.50671 5.27177 6.01603 5.65689 5.63091C6.04202 5.24578 6.5327 4.98351 7.06688 4.87725C7.60106 4.771 8.15475 4.82553 8.65794 5.03396C9.16113 5.24239 9.59122 5.59535 9.89381 6.0482C10.1964 6.50106 10.3579 7.03348 10.3579 7.57813C10.3539 9.09911 9.1211 10.3319 7.60412 10.3319ZM27.7652 27.7032H23.0181V20.2704C23.0181 18.4972 22.9861 16.2197 20.5485 16.2197C18.0789 16.2197 17.6987 18.149 17.6987 20.1423V27.7032H12.9556V12.4213H17.5105V14.5106H17.5746C18.207 13.3098 19.756 12.041 22.0695 12.041C26.8806 12.041 27.7652 15.2071 27.7652 19.3217V27.7032Z" fill="white"/>
</svg>
